<svg xmlns="http://www.w3.org/2000/svg" viewBox="0 0 56 56">
    <path fill="#0864FF" fill-rule="evenodd" d="M28.127.36c5 0 9.628 1.251 13.883 3.752 4.254 2.5 7.632 5.877 10.132 10.132 2.5 4.254 3.75 8.882 3.75 13.883 0 5-1.25 9.628-3.75 13.883-2.5 4.254-5.878 7.632-10.132 10.132-4.255 2.5-8.882 3.75-13.883 3.75-5.001 0-9.629-1.25-13.883-3.75-4.255-2.5-7.632-5.878-10.132-10.132C1.612 37.755.36 33.128.36 28.127c0-5.001 1.25-9.629 3.75-13.883 2.5-4.255 5.878-7.632 10.133-10.132C18.498 1.612 23.126.36 28.127.36zm0 10.749c-2.687 0-5.001.97-6.942 2.91-1.94 1.942-2.91 4.255-2.91 6.942 0 2.687.97 5.001 2.91 6.942 1.94 1.94 4.255 2.91 6.942 2.91 2.687 0 5-.97 6.941-2.91 1.94-1.94 2.911-4.255 2.911-6.942 0-2.687-.97-5-2.91-6.941-1.941-1.94-4.255-2.911-6.942-2.911zm0 38.514c3.21 0 6.25-.672 9.124-2.015 2.874-1.344 5.318-3.21 7.334-5.598a13.367 13.367 0 0 0-4.59-4.87c-1.941-1.232-4.106-1.848-6.494-1.848a3.29 3.29 0 0 0-.784.112c-1.567.523-3.097.784-4.59.784-1.493 0-3.023-.261-4.59-.784a3.29 3.29 0 0 0-.784-.112c-2.389 0-4.553.616-6.494 1.847a13.367 13.367 0 0 0-4.59 4.87c2.015 2.39 4.46 4.255 7.333 5.599a21.285 21.285 0 0 0 9.125 2.015z"/>
</svg>
