<svg xmlns="http://www.w3.org/2000/svg" xmlns:xlink="http://www.w3.org/1999/xlink" width="155" height="65" viewBox="0 0 155 65">
    <defs>
        <path id="a" d="M.073.046H13.76V17.36H.073z"/>
    </defs>
    <g fill="none" fill-rule="evenodd">
        <path fill="#000" d="M12.035 46v12.613L3.6 46.161 3.49 46H0v17h2.966V50.377L11.604 63H15V46zM26.022 55.714h7.96v-2.796h-7.96v-4.122h8.55V46H23v17h12v-2.796h-8.978zM48.373 61.212c-.895 0-1.71-.167-2.424-.495a5.774 5.774 0 0 1-1.852-1.33 5.918 5.918 0 0 1-1.192-1.971 7.008 7.008 0 0 1-.422-2.437c0-.857.142-1.677.422-2.435a5.926 5.926 0 0 1 1.191-1.972 5.785 5.785 0 0 1 1.853-1.331c.712-.327 1.527-.493 2.424-.493s1.713.166 2.426.493c.72.33 1.342.777 1.851 1.33.513.556.913 1.22 1.192 1.973.28.761.423 1.58.423 2.435 0 .856-.142 1.676-.423 2.436a5.895 5.895 0 0 1-1.192 1.972c-.51.553-1.132 1-1.85 1.33-.716.328-1.532.495-2.427.495m6.494-12.694a8.585 8.585 0 0 0-2.855-1.922c-1.106-.461-2.33-.695-3.639-.695-1.309 0-2.532.234-3.637.695a8.552 8.552 0 0 0-2.854 1.922 8.87 8.87 0 0 0-1.86 2.881c-.446 1.099-.673 2.303-.673 3.58 0 1.278.227 2.483.673 3.58a8.86 8.86 0 0 0 1.86 2.881 8.545 8.545 0 0 0 2.854 1.923c1.105.461 2.328.695 3.637.695 1.31 0 2.533-.234 3.639-.696a8.562 8.562 0 0 0 2.855-1.922 8.894 8.894 0 0 0 1.86-2.88c.446-1.1.672-2.304.672-3.58 0-1.276-.226-2.48-.672-3.58a8.916 8.916 0 0 0-1.86-2.882M75.37 59.142a5.064 5.064 0 0 1-1.705 1.529c-.66.359-1.445.54-2.332.54-.911 0-1.736-.162-2.45-.482a5.385 5.385 0 0 1-1.823-1.315 5.876 5.876 0 0 1-1.147-1.938 6.93 6.93 0 0 1-.4-2.355c0-.888.142-1.732.424-2.508a6.262 6.262 0 0 1 1.184-2.024 5.522 5.522 0 0 1 1.825-1.348c.704-.327 1.507-.493 2.387-.493.71 0 1.408.154 2.075.459.661.3 1.213.735 1.642 1.293l.225.293 2.466-1.877-.226-.295a6.419 6.419 0 0 0-2.75-2.062 9.043 9.043 0 0 0-3.361-.658c-1.324 0-2.556.23-3.66.683a8.333 8.333 0 0 0-2.857 1.924 8.776 8.776 0 0 0-1.849 2.93c-.437 1.121-.658 2.36-.658 3.683 0 1.088.205 2.175.61 3.233a8.973 8.973 0 0 0 1.773 2.868 8.98 8.98 0 0 0 2.812 2.051c1.102.521 2.351.785 3.712.785.991 0 1.88-.129 2.638-.382.752-.25 1.406-.545 1.943-.879.539-.333.98-.675 1.312-1.016.326-.333.553-.588.692-.778l.216-.294-2.496-1.876-.221.31zM91.432 61.212c-.895 0-1.71-.167-2.424-.495a5.774 5.774 0 0 1-1.852-1.33 5.918 5.918 0 0 1-1.192-1.971 7.008 7.008 0 0 1-.422-2.437c0-.857.142-1.677.422-2.435a5.926 5.926 0 0 1 1.191-1.972 5.785 5.785 0 0 1 1.853-1.331c.712-.327 1.528-.493 2.424-.493.897 0 1.713.166 2.427.493a5.76 5.76 0 0 1 1.85 1.33c.513.556.914 1.22 1.192 1.973.28.761.423 1.58.423 2.435 0 .856-.142 1.676-.423 2.436a5.898 5.898 0 0 1-1.192 1.972 5.76 5.76 0 0 1-1.85 1.33c-.716.328-1.532.495-2.427.495m6.494-12.694a8.588 8.588 0 0 0-2.855-1.922c-1.106-.461-2.33-.695-3.639-.695-1.309 0-2.532.234-3.637.695a8.58 8.58 0 0 0-2.856 1.923 8.918 8.918 0 0 0-1.86 2.88c-.445 1.1-.671 2.305-.671 3.58 0 1.277.226 2.482.672 3.58a8.892 8.892 0 0 0 1.86 2.881 8.57 8.57 0 0 0 2.855 1.923c1.105.461 2.328.695 3.637.695 1.31 0 2.533-.234 3.639-.696a8.56 8.56 0 0 0 2.856-1.922 8.89 8.89 0 0 0 1.86-2.88c.445-1.1.671-2.304.671-3.58 0-1.276-.226-2.48-.672-3.58a8.919 8.919 0 0 0-1.86-2.882M115.53 56.834h-5.18l2.61-6.32 2.57 6.32zm-3.724-10.512l-7.645 17.315h3.447l1.642-4.097h7.403l1.665 4.097h3.438l-7.423-17.315h-2.527zM134.639 54.527a8.814 8.814 0 0 0-2.057-.818 17.77 17.77 0 0 1-1.93-.62c-.557-.216-1.026-.499-1.396-.839-.33-.304-.49-.743-.49-1.344 0-.212.045-.446.133-.7.083-.243.232-.476.443-.692.211-.219.502-.402.866-.546.37-.145.849-.22 1.423-.22.593 0 1.128.12 1.59.357.46.238.806.54 1.055.925l.237.367 2.413-2.193-.223-.271c-.671-.819-1.465-1.371-2.361-1.642a9.42 9.42 0 0 0-2.71-.39c-1.048 0-1.961.163-2.715.486-.75.321-1.378.73-1.863 1.215a4.689 4.689 0 0 0-1.081 1.627c-.226.588-.34 1.152-.34 1.677 0 1.144.224 2.073.667 2.764a5.207 5.207 0 0 0 1.63 1.623c.625.39 1.318.7 2.06.92.697.206 1.352.424 1.945.646.562.212 1.035.475 1.406.782.32.264.475.649.475 1.178 0 .39-.083.718-.253 1.005a2.525 2.525 0 0 1-.684.756c-.29.21-.602.365-.956.47-1.01.302-1.947.172-2.846-.24a3.353 3.353 0 0 1-1.407-1.213l-.232-.347-2.427 2.084.198.276c.602.836 1.423 1.462 2.44 1.861.992.39 2.055.587 3.162.587a7.47 7.47 0 0 0 2.367-.37 5.833 5.833 0 0 0 1.954-1.075 5.21 5.21 0 0 0 1.326-1.739c.327-.686.492-1.464.492-2.312 0-1.073-.227-1.937-.677-2.568a4.997 4.997 0 0 0-1.634-1.467"/>
        <g transform="translate(141.109 46.276)">
            <mask id="b" fill="#fff">
                <use xlink:href="#a"/>
            </mask>
            <path fill="#000" d="M.073.046v2.847H5.42v14.468h2.993V2.893h5.347V.046z" mask="url(#b)"/>
        </g>
        <path fill="#0864FF" d="M105.21 34.986h5.245L92.413 16.977a1.856 1.856 0 0 0-2.623 0 1.85 1.85 0 0 0 0 2.618l15.42 15.391zM59.622 13.648a1.85 1.85 0 0 0 1.013 2.415 1.857 1.857 0 0 0 2.42-1.011c1.218-2.97 1.065-6.083.52-8.624 3.125 2.316 7.997 6.354 14.823 13.167l15.42 15.392h5.244L81.02 16.977C67.166 3.148 61.008.325 60.753.212a1.854 1.854 0 0 0-2.376 2.59c.032.058 3.254 5.951 1.245 10.846M116.647 34.986h5.245l-15.656-15.628a1.856 1.856 0 0 0-2.623 0 1.848 1.848 0 0 0 0 2.618l13.034 13.01zM67.498 34.986h5.245L54.7 16.977a1.856 1.856 0 0 0-2.622 0 1.848 1.848 0 0 0 0 2.618l15.42 15.391zM40.072 34.986l-5.796-5.784a1.857 1.857 0 0 0-2.623 0 1.85 1.85 0 0 0 0 2.618l3.173 3.166h5.246zM56.104 34.986h5.246L50.108 23.764a1.858 1.858 0 0 0-2.623 0 1.85 1.85 0 0 0 0 2.619l8.62 8.603zM44.71 34.986h5.246l-5.796-5.784a1.856 1.856 0 0 0-2.622 0 1.848 1.848 0 0 0 0 2.618l3.173 3.166z"/>
    </g>
</svg>
