<svg xmlns="http://www.w3.org/2000/svg" width="15" height="12" viewBox="0 0 15 12">
    <path fill="#3B475B" fill-rule="evenodd" d="M14.56 6.873L9.64 11.795c-.44.44-1.202.132-1.202-.498V8.484H4.453a.701.701 0 0 1-.703-.703V4.97c0-.39.313-.703.703-.703h3.984V1.453c0-.627.76-.937 1.202-.498l4.922 4.922a.71.71 0 0 1 0 .996zm-8.935 4.775a.353.353 0 0 1-.352.352h-2.46A2.813 2.813 0 0 1 0 9.188V3.563A2.813 2.813 0 0 1 2.812.75h2.461c.194 0 .352.158.352.352v1.171a.353.353 0 0 1-.352.352h-2.46a.936.936 0 0 0-.938.938v5.625c0 .518.419.937.937.937h2.461c.194 0 .352.158.352.352v1.171z"/>
</svg>
